<?xml version="1.0" standalone="no"?>
<!DOCTYPE svg PUBLIC "-//W3C//DTD SVG 20010904//EN"
 "http://www.w3.org/TR/2001/REC-SVG-20010904/DTD/svg10.dtd">
<svg version="1.0" xmlns="http://www.w3.org/2000/svg"
 width="1080.000000pt" height="1080.000000pt" viewBox="0 0 1080.000000 1080.000000"
 preserveAspectRatio="xMidYMid meet">

<g transform="translate(0.000000,1080.000000) scale(0.100000,-0.100000)"
fill="#000000" stroke="none">
<path d="M4970 10789 c-974 -82 -1894 -414 -2670 -963 -1736 -1227 -2589
-3315 -2211 -5411 121 -672 395 -1363 769 -1940 866 -1335 2237 -2208 3817
-2430 304 -43 824 -59 1131 -35 759 59 1458 259 2114 605 169 89 206 111 385
224 650 410 1246 1006 1656 1656 113 179 135 216 224 385 308 585 496 1184
586 1870 18 136 22 233 26 558 4 256 1 445 -7 540 -101 1258 -642 2438 -1533
3341 -446 452 -927 797 -1492 1072 -616 299 -1248 470 -1950 529 -139 11 -706
11 -845 -1z m1455 -1823 c414 -68 819 -258 1151 -541 286 -244 470 -484 618
-804 113 -244 165 -426 203 -711 16 -118 27 -408 17 -435 -4 -9 -19 -15 -36
-15 -47 0 -91 -33 -154 -118 -31 -42 -68 -91 -81 -109 l-24 -31 100 -77 c56
-41 101 -80 101 -85 0 -6 -100 -142 -222 -303 -122 -160 -232 -306 -245 -324
l-24 -31 83 -63 c46 -34 85 -64 87 -65 5 -5 -76 -113 -111 -148 -25 -25 -32
-28 -49 -18 -10 7 -168 126 -351 265 -183 140 -345 260 -359 268 -14 8 -175
128 -358 268 -183 139 -334 251 -336 249 -3 -2 0 -20 6 -39 37 -126 57 -392
39 -524 -4 -33 -11 -85 -15 -115 -16 -120 -95 -348 -164 -470 -23 -39 -41 -75
-41 -80 0 -4 209 -166 465 -360 l465 -353 -30 -37 -29 -37 32 -30 c45 -41 140
-115 308 -237 244 -178 319 -246 319 -288 0 -18 11 -34 38 -54 46 -34 99 -91
117 -124 43 -82 445 -1058 445 -1082 0 -33 -20 -76 -46 -100 -11 -9 -75 -40
-144 -68 -69 -29 -127 -54 -129 -56 -2 -2 18 -36 44 -76 125 -185 318 -395
493 -536 50 -41 92 -79 92 -84 0 -5 -8 -21 -19 -34 l-19 -24 -78 62 c-98 77
-320 298 -400 398 -33 41 -86 113 -119 160 -32 47 -61 88 -65 92 -3 4 -91 -29
-195 -73 -215 -92 -258 -100 -318 -59 -31 21 -53 68 -258 554 l-224 531 0 100
0 100 79 195 c43 107 89 217 103 243 27 55 73 87 122 87 20 0 110 -30 209 -70
96 -39 176 -69 178 -67 6 5 -111 98 -229 183 -206 148 -253 184 -317 239 l-65
56 -27 -33 c-15 -18 -28 -36 -28 -40 0 -5 -5 -8 -10 -8 -6 0 -218 157 -471
350 l-461 350 -86 -80 c-116 -107 -214 -177 -352 -247 -172 -88 -324 -137
-511 -163 -97 -14 -407 -8 -474 9 -22 6 -70 17 -107 26 -223 52 -381 137 -685
366 -124 93 -227 169 -230 169 -3 0 -4 -810 -1 -1800 5 -1880 5 -1847 -37
-1864 -9 -3 -57 -6 -105 -6 -78 0 -92 3 -114 23 l-24 22 -5 2098 c-2 1153 -1
2097 2 2097 3 0 182 -134 396 -297 215 -163 419 -317 455 -343 144 -102 343
-183 533 -216 137 -24 357 -15 496 21 229 59 396 148 551 294 l65 61 -32 27
c-17 16 -608 465 -1312 998 -801 607 -1278 975 -1276 983 7 19 156 212 164
212 3 0 596 -448 1316 -995 l1310 -995 17 23 c54 69 138 321 155 460 15 121 7
306 -16 417 -32 149 -118 362 -172 425 -9 11 -24 34 -32 50 -9 17 -31 46 -49
66 -18 20 -440 346 -938 724 -498 378 -909 692 -914 696 -13 11 170 244 277
352 370 375 817 597 1347 671 63 9 126 18 140 20 61 11 490 -3 585 -18z
m-1706 -5860 c46 -47 -3 -106 -88 -106 -76 0 -118 72 -68 117 41 38 111 33
156 -11z m520 -112 c37 -31 58 -96 42 -131 -20 -44 -71 -19 -56 28 7 20 -26
59 -49 59 -44 0 -87 -130 -90 -266 -1 -83 1 -96 20 -114 19 -19 26 -20 60 -11
51 14 162 98 205 156 19 25 46 62 62 82 15 20 27 40 27 45 0 22 54 77 101 103
64 34 127 31 167 -8 58 -59 32 -203 -59 -321 -40 -51 -49 -70 -44 -88 12 -40
35 -68 55 -68 46 0 144 123 221 279 25 50 52 88 79 110 23 18 43 31 46 28 7
-6 -117 -280 -160 -354 -38 -65 -101 -128 -144 -144 -15 -6 -55 -11 -89 -11
-119 1 -193 76 -209 215 -4 31 -10 57 -14 57 -3 0 -14 -15 -23 -34 -19 -41
-119 -127 -190 -163 -116 -58 -223 -21 -275 95 l-20 44 -32 -58 c-63 -109
-117 -154 -185 -154 -78 0 -149 58 -175 143 -32 106 -19 358 21 398 44 44 149
26 171 -30 6 -16 7 -78 3 -162 -11 -215 8 -269 68 -198 41 49 122 215 136 279
15 70 50 130 101 170 48 38 78 48 147 49 41 1 57 -4 82 -25z m-1189 -39 c48
-25 82 -72 100 -136 l17 -63 33 68 c32 65 91 133 128 148 36 14 99 8 116 -11
25 -28 32 -86 11 -94 -20 -8 -49 6 -69 35 l-16 22 -27 -20 c-75 -55 -127 -204
-141 -403 -11 -149 -15 -155 -110 -149 -38 2 -68 10 -77 19 -10 10 -25 83 -45
217 -40 275 -47 371 -29 383 17 11 73 3 109 -16z m699 -1240 c62 -31 89 -74
97 -154 6 -49 10 -61 24 -61 26 0 67 36 96 86 27 47 38 53 48 29 15 -41 -64
-149 -123 -165 -35 -9 -38 -14 -60 -82 -54 -169 -115 -218 -246 -195 -112 19
-171 118 -163 276 10 208 176 343 327 266z m-360 -32 c12 -10 24 -35 28 -55 5
-35 4 -38 -19 -38 -14 0 -33 9 -43 20 -36 40 -71 17 -119 -75 -35 -70 -54
-151 -64 -282 -5 -64 -14 -119 -22 -128 -9 -10 -30 -15 -71 -15 -82 0 -92 12
-112 141 -30 191 -48 356 -45 395 l3 39 48 -1 c76 -1 140 -63 153 -150 3 -24
9 -44 13 -44 3 0 17 26 31 58 51 118 159 184 219 135z"/>
<path d="M5860 8753 c-74 -6 -290 -43 -373 -64 -238 -60 -536 -201 -718 -341
-150 -114 -214 -173 -347 -319 l-32 -35 316 -240 c595 -451 1549 -1174 2131
-1617 320 -243 586 -442 592 -442 5 0 118 144 251 320 134 176 245 322 247
325 2 2 54 -12 115 -33 62 -20 113 -35 115 -33 2 1 8 38 13 82 50 404 -32 875
-215 1234 -104 203 -248 395 -416 555 -366 347 -760 541 -1219 599 -98 13
-357 18 -460 9z m220 -861 c85 -43 124 -242 47 -242 -12 0 -14 10 -10 58 6 70
-12 113 -60 142 -55 34 -98 27 -179 -32 -15 -11 -22 -8 -48 17 -26 25 -38 29
-85 29 -51 0 -59 -3 -93 -37 -34 -34 -37 -42 -36 -92 0 -36 6 -60 17 -73 22
-24 22 -27 -7 -65 -46 -62 -40 -130 15 -183 27 -26 37 -29 87 -28 31 1 66 3
76 5 29 6 30 -18 1 -37 -16 -10 -46 -17 -78 -17 -135 0 -216 136 -156 261 18
36 19 48 10 68 -30 67 -1 170 62 215 50 37 131 40 190 9 35 -19 39 -19 62 -4
54 36 121 37 185 6z m55 -339 c252 -191 303 -238 257 -238 -20 0 -562 416
-562 432 0 7 7 13 16 13 8 0 139 -93 289 -207z m5 -152 c257 -194 300 -229
300 -247 0 -12 -4 -13 -22 -3 -28 15 -507 378 -514 390 -8 14 6 30 19 22 7 -3
104 -76 217 -162z m-81 -81 c247 -187 289 -226 256 -237 -5 -1 -137 94 -293
213 -231 176 -281 218 -271 230 6 7 17 10 24 6 7 -4 135 -99 284 -212z m663
-67 c63 -67 64 -55 -28 -281 -46 -113 -84 -219 -84 -237 0 -39 9 -47 230 -215
96 -72 179 -139 183 -147 10 -16 -8 -43 -29 -43 -13 0 -372 268 -412 307 -28
28 -45 79 -39 118 3 20 40 121 82 226 81 204 80 193 33 241 -18 18 -24 49 -11
61 15 16 41 5 75 -30z m284 -184 c52 -40 54 -43 39 -63 -8 -12 -22 -36 -30
-54 -8 -19 -18 -32 -23 -30 -21 8 -131 94 -132 102 0 10 71 84 83 85 4 1 33
-18 63 -40z m19 -194 c155 -117 227 -178 232 -194 7 -28 1 -34 -155 -153 l-94
-71 -31 16 c-41 20 -307 227 -320 248 -8 12 -1 40 26 105 58 144 97 226 107
222 5 -2 111 -79 235 -173z m91 62 c4 -4 3 -7 -3 -7 -6 0 -9 -8 -6 -18 2 -10
-5 -26 -16 -36 -19 -17 -21 -17 -49 4 -33 25 -32 46 2 60 23 10 61 8 72 -3z
m99 -17 c13 -14 15 -24 8 -31 -12 -12 -43 14 -43 37 0 20 14 17 35 -6z m-18
-52 c10 -13 25 -24 33 -26 18 -4 40 -31 40 -48 0 -6 -8 -22 -19 -35 l-18 -23
-67 49 c-67 50 -81 75 -48 94 28 17 59 12 79 -11z m53 2 c-24 -15 -37 -11 -16
5 11 8 22 12 25 9 3 -3 -1 -9 -9 -14z m-635 -296 c23 -9 43 -55 35 -84 -3 -14
-18 -31 -33 -38 -47 -23 -97 7 -97 59 0 50 47 81 95 63z m277 -211 c29 -33 30
-59 5 -88 -27 -32 -68 -36 -97 -10 -24 22 -26 72 -3 97 21 23 75 24 95 1z"/>
<path d="M6950 7069 c0 -14 41 -48 58 -49 17 0 15 10 -5 27 -34 26 -53 34 -53
22z"/>
<path d="M6845 6886 c-27 -18 -80 -130 -72 -150 4 -9 16 -16 27 -16 15 0 29
18 57 75 33 67 36 77 22 90 -13 13 -17 13 -34 1z"/>
<path d="M6953 6783 c-76 -82 -99 -143 -53 -143 21 0 110 106 110 131 0 9 -7
22 -15 29 -12 10 -20 7 -42 -17z"/>
<path d="M7027 6663 c-60 -60 -66 -73 -42 -93 12 -10 25 -2 75 46 42 40 60 64
58 78 -5 37 -32 28 -91 -31z"/>
<path d="M6570 6510 c0 -15 5 -20 18 -18 9 2 17 10 17 18 0 8 -8 16 -17 18
-13 2 -18 -3 -18 -18z"/>
<path d="M6832 6327 c-16 -19 7 -40 28 -27 13 8 13 11 -1 25 -13 14 -17 14
-27 2z"/>
<path d="M7866 5871 c-130 -171 -237 -315 -238 -320 -2 -5 37 -41 86 -81 86
-69 90 -71 106 -53 28 28 470 614 470 622 -1 6 -165 133 -180 139 -5 2 -114
-137 -244 -307z"/>
<path d="M7815 5919 c1 -15 -2 -26 -6 -23 -4 2 -10 0 -13 -5 -4 -5 -1 -13 5
-17 12 -7 58 42 59 62 0 6 -10 12 -23 12 -20 0 -23 -5 -22 -29z"/>
<path d="M7430 3431 c-25 -48 -8 -102 54 -168 36 -40 49 -41 64 -8 29 62 5
141 -51 175 -40 25 -54 25 -67 1z"/>
<path d="M7310 3388 c-55 -90 14 -216 112 -206 l30 3 -32 35 c-44 48 -83 134
-78 171 6 38 -7 37 -32 -3z"/>
<path d="M5636 2888 c-19 -29 -35 -215 -18 -204 20 12 59 89 67 130 6 38 -9
96 -26 96 -5 0 -15 -10 -23 -22z"/>
<path d="M4726 1589 c-6 -31 16 -89 34 -89 13 0 13 61 0 94 -13 35 -26 33 -34
-5z"/>
<path d="M4630 1485 c-7 -21 -10 -69 -8 -111 3 -64 7 -78 29 -100 l26 -26 23
24 c22 23 55 89 66 132 4 18 -1 24 -30 34 -20 7 -49 29 -65 49 l-29 35 -12
-37z"/>
</g>
</svg>
